<svg width="215" height="242" viewBox="0 0 215 242" fill="none" xmlns="http://www.w3.org/2000/svg">
<path id="Union" fill-rule="evenodd" clip-rule="evenodd" d="M134.333 90.3378C134.187 86.3526 131.728 82.9647 128.258 81.4733L60.5486 81.4733C57.0808 82.9635 54.6238 86.3471 54.4737 90.3279L54.4736 151.672C54.6719 156.929 58.8933 161.145 64.153 161.333L124.653 161.333C129.916 161.144 134.14 156.924 134.333 151.662V90.3378ZM135.14 155.257V86.7432C136.154 84.3813 138.047 82.4882 140.409 81.4733L215 81.4733V80.6667H144.013C140.024 80.5235 136.632 78.0638 135.14 74.5901V0H134.333V70.9955C134.14 76.2572 129.916 80.4778 124.653 80.6667L64.1508 80.6666L64.153 80.6666C58.8933 80.4778 54.672 76.2624 54.4737 71.0052V0H53.667L53.667 74.5892C52.1749 78.0633 48.7826 80.5234 44.793 80.6666L44.7951 80.6666L-27 80.6666V81.4733L48.3973 81.4733C50.7593 82.4883 52.6524 84.3817 53.667 86.744V155.256C52.1749 158.73 48.7826 161.19 44.793 161.333L-27 161.333V162.14L48.3972 162.14C50.7593 163.155 52.6524 165.048 53.667 167.411L53.667 242H54.4736V170.995C54.6237 167.014 57.0808 163.63 60.5488 162.14H128.257C131.728 163.631 134.186 167.019 134.333 171.004V242H135.14V167.41C136.154 165.048 138.047 163.155 140.409 162.14L215 162.14V161.333H144.013C140.024 161.19 136.632 158.73 135.14 155.257Z" fill="#EADAFF"/>
</svg>
